<?xml version="1.0" encoding="utf-8"?>
<!-- Generator: Adobe Illustrator 18.0.0, SVG Export Plug-In . SVG Version: 6.00 Build 0)  -->
<!DOCTYPE svg PUBLIC "-//W3C//DTD SVG 1.1//EN" "http://www.w3.org/Graphics/SVG/1.1/DTD/svg11.dtd">
<svg version="1.1" id="Layer_1" xmlns="http://www.w3.org/2000/svg" xmlns:xlink="http://www.w3.org/1999/xlink" x="0px" y="0px"
	 viewBox="0 0 1104.1 516.6" enable-background="new 0 0 1104.1 516.6" xml:space="preserve">
<g>
	<g>
		<g>
			<g id="XMLID_3_">
				<path fill="#0086FF" d="M1062.8,268.3l15.8,21.9c-9.7,7.5-19.7,13.9-30.1,19.3c-4.5,2.3-9.4,4.5-14.5,6.6
					c-5.1,2.1-10.5,3.8-16,5.3c-5.5,1.4-11.2,2.4-17,2.9c-5.8,0.5-11.5,0.3-17.3-0.5c-9-1.3-16.6-4-22.9-8.2
					c-6.3-4.2-11.3-9.4-15-15.5c-1.4-2.3-2.6-4.6-3.6-7.1c4.5-1.8,9.3-3.7,14.4-5.8l5.2-36.8c-3.3,2.8-7,5.4-10.9,7.9
					c-4,2.5-8.1,4.9-12.3,7c-0.3,0.2-0.7,0.3-1,0.5c0.1-3.2,0.3-6.3,0.8-9.6c0.8-5.4,2.1-11,4-16.8c1.9-5.8,4.3-11.5,7.3-16.9
					c3-5.4,6.5-10.5,10.5-15.3c4-4.8,8.5-8.8,13.4-12.2c4.9-3.3,10.3-5.8,16-7.4c5.7-1.6,11.9-1.9,18.5-1c5.4,0.8,10.2,2.3,14.6,4.7
					c4.3,2.4,8,5.4,11,9c3,3.6,5.1,7.7,6.4,12.4c1.3,4.7,1.5,9.7,0.8,15.2c-0.9,5.9-3.2,11.7-6.9,17.2c-3.8,5.5-8.6,10.5-14.5,15.1
					c-5.9,4.5-12.7,8.3-20.5,11.4c-7.7,3.1-15.9,5.2-24.6,6.3c1.1,2.8,2.2,5.1,3.3,7.1c1.1,1.9,2.4,3.5,3.7,4.6
					c1.3,1.2,2.7,2,4.2,2.6c1.5,0.6,3.2,1,5,1.3c5.7,0.8,12,0.5,18.7-0.8c6.7-1.4,13.3-3.4,19.8-6c6.5-2.6,12.8-5.5,18.7-8.8
					C1053.5,274.6,1058.6,271.4,1062.8,268.3z M1013.3,230.5c0.6-4.3,0.3-8-0.9-11c-1.2-3-2.9-4.7-5.2-5c-4.1-0.6-7.7-0.3-10.9,0.8
					c-3.1,1.1-5.9,2.8-8.2,4.9c-2.3,2.2-4.3,4.7-5.9,7.7c-1.7,2.9-3,6-4.1,9c-1.1,3.1-1.9,6.1-2.5,9c-0.6,2.9-1.1,5.5-1.4,7.6
					c3.4,0.5,7.3,0.1,11.6-1c4.3-1.2,8.4-2.9,12.3-5.2c3.9-2.3,7.3-4.9,10.1-7.8C1011.2,236.5,1012.8,233.6,1013.3,230.5z"/>
				<path fill="#0086FF" d="M971.6,172.1c0.6,1.9,0.7,4.3,0.3,7.1c-0.5,3.4-1.8,6-4,7.8c-2.2,1.8-4.5,2.6-6.8,2.3l-55.1-7.9
					c-3.3,3.4-6.7,6.8-10,10.1c-3.3,3.3-6.4,6.2-9.2,8.9c-1.2,5.9-2.4,11.7-3.5,17.4c-0.4,2.5-0.9,5-1.4,7.6
					c-0.5,2.6-0.9,5.2-1.4,7.8c-0.5,2.6-0.9,5-1.3,7.4c-0.4,2.4-0.7,4.6-1,6.6c-0.7,5.2-0.9,9.6-0.4,13.3c0.5,3.7,1.4,6.8,2.9,9.3
					c1.5,2.5,3.5,4.5,6,5.8c2.5,1.4,5.4,2.3,8.6,2.8c2,0.3,4.6,0.2,7.7-0.4c3.1-0.5,6.6-1.4,10.5-2.5c3.8-1.2,7.9-2.6,12.2-4.4
					c3.9-1.6,7.9-3.4,11.8-5.3c-0.1,4.6,0.2,9.2,0.9,13.7c0.8,4.8,2,9.2,3.8,13.4c-4.3,1.7-8.4,3.3-12.2,4.8
					c-7.8,3-14.6,5.4-20.6,7.3c-6,1.9-11.3,3.2-15.8,3.9c-4.6,0.7-8.6,0.8-12.1,0.3c-7.3-1-13.4-4.2-18.3-9.4
					c-2.2-2.3-4.2-5-5.9-8.1c0.6-0.5,1.3-1,1.9-1.6c4.3-3.6,7.7-6.8,10.4-9.5l-2.4-32.8c-5.7,5.8-11.3,11-16.7,15.5
					c-0.5,0.4-1,0.8-1.5,1.2c-0.7-5.2-1.1-10.9-1.2-16.9c-0.2-12,0.8-25.4,2.9-40.2c0.8-5.8,1.9-11.8,3.3-18.3
					c1.4-6.4,3-12.8,4.8-19.1c-2.8-0.8-5-1.5-6.5-2c-1.5-0.6-3.2-1.1-4.9-1.7c-1.7-0.6-3.9-1.3-6.6-2c-2.7-0.8-6.6-1.8-11.6-3.1
					c-2.3-0.6-3.9-1.4-5.1-2.4c-1.1-1-1.9-2.1-2.3-3.3c-0.4-1.2-0.6-2.4-0.5-3.6c0.1-1.2,0.2-2.3,0.3-3.1c0.3-1.9,1.4-3.2,3.4-4
					c2-0.7,4.5-1.1,7.5-1.2c3-0.1,6.2,0.1,9.7,0.6c3.5,0.5,6.9,1,10,1.5c3.2,0.6,6.1,1,8.6,1.5c2.5,0.4,4.3,0.6,5.3,0.5
					c4.4-12.6,9.5-24.6,15.2-36.2c5.7-11.5,11.7-21.7,18-30.4c6.3-8.7,12.7-15.5,19.4-20.4c6.7-4.9,13.2-6.8,19.6-5.9
					c4.1,0.6,7.7,2.3,10.8,5.1c3.1,2.8,5.5,6.3,7.4,10.4c1.9,4.2,3.1,8.9,3.6,14.2c0.6,5.3,0.5,10.7-0.3,16.3
					c-0.7,4.7-2,9.5-4.1,14.6c-2.1,5-4.7,10.1-7.7,15.2c-3.1,5.1-6.5,10.2-10.4,15.3c-3.9,5.1-8,10.2-12.2,15.1
					c0.8,0.2,2.3,0.5,4.3,0.8c2,0.3,4.3,0.7,6.9,1.2c2.6,0.5,5.5,1,8.5,1.6c3,0.6,6,1.1,8.8,1.6c2.9,0.5,5.5,1,8,1.4
					c2.5,0.5,4.5,0.8,6.1,1.2C969.8,169,971,170.2,971.6,172.1z M936.8,95.2c0-1.3-0.1-2.6-0.4-3.8c-0.3-1.2-0.9-2.3-1.8-3.2
					c-0.9-0.9-2.3-1.5-4.1-1.8c-2.5-0.3-5.3,1.5-8.5,5.5c-3.2,4-6.4,9.3-9.7,15.8c-3.3,6.5-6.6,13.7-9.8,21.7
					c-3.2,7.9-6.3,15.7-9.1,23.2c1.4,0.4,2.8,0.8,4.2,1.1c1.4,0.3,2.9,0.7,4.4,1.1c3.6-4.5,7.3-9.3,11.2-14.6
					c3.9-5.3,7.5-10.5,10.8-15.6c3.3-5.2,6.1-10,8.4-14.6c2.3-4.5,3.7-8.4,4.1-11.4C936.7,97.7,936.8,96.5,936.8,95.2z"/>
				<path fill="#0086FF" d="M961.8,250.3l-5.2,36.8c-5.1,2.1-9.9,4-14.4,5.8c-1.8-4.2-3-8.7-3.8-13.4c-0.7-4.5-1-9-0.9-13.7
					c0.3-0.2,0.7-0.3,1-0.5c4.3-2.2,8.4-4.5,12.3-7C954.8,255.6,958.5,253,961.8,250.3z"/>
				<path fill="#0086FF" d="M867.2,247.8l2.4,32.8c-2.6,2.8-6.1,5.9-10.4,9.5c-0.6,0.5-1.3,1.1-1.9,1.6c-2.1-3.8-3.9-8.1-5.3-12.9
					c-1.3-4.4-2.3-9.2-2.9-14.3c0.5-0.4,1-0.8,1.5-1.2C856,258.8,861.5,253.6,867.2,247.8z"/>
				<path fill="#0086FF" d="M852,278.8c1.4,4.9,3.2,9.2,5.3,12.9c-3.8,3-7.8,5.8-12.2,8.4c-5.1,3.1-10.5,5.5-16.1,7.4
					c-5.6,1.8-11.1,2.4-16.3,1.6c-6.3-0.9-11.3-3.7-14.9-8.4c-3.6-4.7-6.4-11.1-8.4-19.3c-2.7,2.4-5.9,4.7-9.6,7
					c-3.8,2.3-7.8,4.3-12.1,6c-4.3,1.7-8.7,2.9-13.2,3.8c-4.5,0.8-8.9,0.9-13.2,0.3c-4.6-0.7-8.9-2.2-13-4.7c-2.3-1.4-4.4-3-6.3-4.9
					c1.4-0.5,2.8-1.1,4.2-1.7c4.5-1.9,8.7-3.9,12.6-6.1c4-2.1,7.6-4.3,10.9-6.5c1.6-1.1,3.1-2.1,4.4-3.1c0.9,0.4,1.8,0.7,2.9,0.8
					c3.5,0.5,7-0.6,10.3-3.2c3.3-2.7,6.3-6,9-10c2.7-4,5.1-8.2,7-12.6c1.9-4.4,3.3-8.1,4.1-11.1l14.8-41c-3.9-0.6-7.9-0.1-11.9,1.3
					c-4,1.4-7.9,3.6-11.7,6.5c-3.8,2.9-7.4,6.3-10.8,10.2c-3.4,3.9-6.4,8.1-9.1,12.5c-2.7,4.5-4.9,9-6.7,13.6
					c-0.9,2.3-1.6,4.6-2.3,6.9c-1.9,1.4-4,2.9-6.1,4.3c-3.4,2.3-7,4.4-10.7,6.4c-3.7,2-7.4,3.8-10.9,5.3c-3.5,1.5-6.9,2.7-10,3.6
					c-0.5,0.1-1,0.3-1.4,0.4c-0.5-4-0.4-8.2,0.3-12.7c1-7.2,3.1-14.4,6.2-21.7c3.1-7.3,6.9-14.3,11.5-21c4.6-6.7,9.7-13,15.5-18.7
					c5.7-5.7,11.8-10.6,18.3-14.5c6.4-4,13-6.9,19.8-8.8c6.8-1.9,13.5-2.4,20-1.5c2.2,0.3,3.9,1,5,2c1.1,1,2,2.2,2.7,3.4
					c0.6,1.2,1.3,2.4,1.9,3.6c0.6,1.2,1.5,2.1,2.6,2.7c1.1,0.6,2.2,1.1,3.4,1.4c1.2,0.3,2.4,0.6,3.6,0.7c1.1,0.1,2.1,0.3,3.2,0.4
					c1.1,0.1,2.2,0.2,3.3,0.4c1.4,0.2,2.8,0.5,3.9,1c1.2,0.5,2.2,1.2,3,2.3c0.8,1.1,1.4,2.5,1.7,4.3c0.3,1.8,0.2,4.2-0.2,7.1
					c-0.7,4.6-1.9,9.6-3.6,15.1c-1.8,5.5-3.6,11.1-5.6,16.8c-2,5.7-3.9,11.5-5.7,17.2c-1.8,5.8-3.1,11.3-3.8,16.5
					c-0.6,4.5-0.7,8.1-0.3,10.7c0.5,2.7,2,4.2,4.7,4.5c2,0.3,4.2,0.1,6.5-0.6c2.4-0.7,4.8-1.7,7.2-3c2.5-1.3,5-2.8,7.5-4.6
					c2-1.4,4-2.8,5.8-4.3C849.7,269.6,850.7,274.4,852,278.8z"/>
				<path fill="#0086FF" d="M751.9,269.9c0.6,0.6,1.4,1.2,2.3,1.6c-1.4,1-2.8,2-4.4,3.1c-3.3,2.2-6.9,4.4-10.9,6.5
					c-4,2.1-8.2,4.2-12.6,6.1c-1.4,0.6-2.8,1.2-4.2,1.7c-1.5-1.5-2.9-3.1-4.2-4.8c-2.9-4-4.9-8.6-6.2-13.9c-0.4-1.5-0.7-3.1-0.8-4.7
					c0.5-0.1,0.9-0.2,1.4-0.4c3.1-0.8,6.4-2,10-3.6c3.5-1.5,7.2-3.3,10.9-5.3c3.7-2,7.3-4.1,10.7-6.4c2.2-1.5,4.2-2.9,6.1-4.3
					c-0.6,2.2-1,4.3-1.3,6.4c-0.3,2.4-0.5,4.7-0.5,7c0,2.3,0.3,4.4,0.9,6.3C749.7,267,750.6,268.6,751.9,269.9z"/>
				<path fill="#0086FF" d="M717.8,284.1c1.3,1.8,2.7,3.4,4.2,4.8c-3,1.2-6.1,2.3-9.1,3.2c-4.5,1.4-8.8,2.4-13.2,3.1
					c-4.3,0.7-8.3,0.9-12,0.7c-3.7-0.3-6.8-1.2-9.3-2.8c-2.5-1.6-4.6-3.8-6.3-6.6c-1.7-2.7-3.1-6-4.1-9.7c-1-3.7-1.9-7.8-2.5-12.3
					c-3.8,4.3-7.8,8.2-11.9,11.7c-4.1,3.5-8.3,6.6-12.5,9.1c-4.2,2.5-8.4,4.4-12.6,5.7c-4.2,1.3-8.2,1.8-12.1,1.5
					c-3.2-0.2-6.1-1-8.9-2.2c-0.1,0-0.2-0.1-0.3-0.2c4.5-2.6,9.1-5.5,13.8-8.6l-2-33.7c-6.1,4.5-12,8.5-17.6,12
					c-2.1,1.3-4.2,2.5-6.4,3.7c0-1.5,0.1-3.1,0.2-4.8c0.5-7.4,2.1-16.8,4.7-28.2c2.6-11.3,5.7-24.3,9.4-38.9
					c0.3-1.4,0.8-3.4,1.5-5.8c0.7-2.4,1.6-5,2.7-7.9c1.1-2.8,2.5-5.7,4-8.6c1.6-2.9,3.4-5.5,5.4-7.8c2-2.3,4.3-4.1,6.9-5.5
					c2.6-1.4,5.4-2,8.5-1.9c5.1,0.6,8.7,1.5,10.9,2.7c2.1,1.3,3.1,2.7,3,4.4c-1.2,5.1-2.6,10.7-4,16.9c-1.5,6.2-2.9,12.4-4.5,18.7
					c-1.5,6.3-3,12.4-4.4,18.4c-1.4,6-2.6,11.3-3.7,15.9c-1.1,4.7-2,8.4-2.6,11.3c-0.6,2.9-1,4.3-1,4.4c-0.1,1.7-0.1,3.4,0.1,5
					c0.2,1.6,0.6,3.1,1.2,4.4c0.6,1.3,1.4,2.4,2.4,3.2c1,0.9,2.2,1.3,3.7,1.4c2.1,0.2,4.3-0.3,6.6-1.2c2.3-1,4.5-2.4,6.6-4.3
					c2.1-1.9,4.1-4.4,5.8-7.3c1.8-2.9,3.2-6.3,4.2-10.1l19.5-72.5c0.7-2.3,2.7-4.1,6.3-5.4c3.5-1.3,7.5-1.9,11.8-1.6
					c4.9,0.3,8.8,1.5,11.5,3.4c2.8,1.9,4.1,4.3,3.9,7c-0.2,2.6-0.7,6.1-1.6,10.6c-0.9,4.4-2,9.3-3.3,14.6
					c-1.3,5.3-2.7,10.7-4.1,16.4c-1.5,5.6-2.8,10.8-4.1,15.7c-1.3,4.9-2.3,9.1-3.2,12.8c-0.8,3.7-1.3,6.2-1.4,7.7
					c-0.2,2.7-0.3,5.2-0.4,7.5c-0.1,2.3,0.1,4.3,0.5,6c0.4,1.7,1,3.1,2,4.1c0.9,1,2.4,1.5,4.3,1.7c1.8,0.1,3.9-0.1,6.4-0.7
					c0.2,1.6,0.5,3.2,0.8,4.7C712.8,275.5,714.9,280.1,717.8,284.1z"/>
				<path fill="#0086FF" d="M630.8,58.4c0.5,5.2,0.6,10.6,0.2,16.1c-0.2,3.4-0.6,6.8-1.2,10.4c-2.2,13.5-5.4,26.2-9.7,38.1
					c-4.2,11.9-9,23.4-14.4,34.5c-5.3,11.2-11.1,22.2-17.2,33.1c-6.1,10.9-12.1,22.3-18,34.1c-0.6,1.3-1.2,2.9-1.8,4.8
					c-0.6,1.9-1.2,4-1.8,6.2c-0.6,2.2-1.1,4.5-1.6,6.9c-0.5,2.3-0.8,4.6-0.9,6.8c-0.2,2.8-0.2,5.5-0.1,8c0.2,2.5,0.6,4.8,1.2,6.8
					c0.6,2,1.5,3.7,2.8,4.9c1.2,1.3,2.8,1.9,4.7,2.1c1.8,0.1,3.9-0.1,6.1-0.7c2.2-0.6,4.6-1.4,7.1-2.5c2.5-1.1,5-2.3,7.6-3.8
					c0.4-0.2,0.7-0.4,1.1-0.6c0,4,0.3,7.6,1,10.6c1,4.2,2.4,7.6,4.4,10.3c1.9,2.6,4.2,4.5,6.8,5.7c-2.5,1.5-5,2.8-7.5,4.2
					c-2.9,1.5-6,3-9.2,4.5c-3.2,1.5-6.3,2.8-9.4,3.8c-3.1,1.1-6.1,1.9-9,2.6c-2.9,0.6-5.6,0.8-8,0.7c-1.4-0.1-3.3-0.5-5.9-1.3
					c-2.6-0.8-5.4-2.2-8.4-4.2c-3-2-6-4.8-8.9-8.4c-2.9-3.6-5.3-8.3-7.2-14c-3.8,3.2-7.8,6.3-12.1,9.1c-4.2,2.8-8.6,5.3-13,7.3
					c-4.5,2-8.9,3.6-13.4,4.7c-4.5,1.1-9,1.5-13.4,1.2c-4.6-0.3-8.8-1.4-12.4-3.1c0.7-0.6,1.3-1.3,2-1.9c4-3.9,7.2-7.3,9.7-10.2
					l-4.7-32.6c-5.3,6.2-10.5,11.8-15.6,16.6c-2.2,2.1-4.5,4.1-6.9,6c-0.7,0.5-1.4,1.1-2.1,1.6c-1.1-2.8-1.9-5.8-2.5-8.9
					c-1.1-5.8-1.4-11.7-1-17.8c0.4-6.2,1.7-12.4,3.7-18.6c2-6.2,4.8-12.2,8.2-17.9c3.5-5.7,7.6-11.1,12.3-16c4.7-5,10-9.3,15.8-13
					c5.8-3.7,12-6.7,18.7-8.9c6.7-2.2,13.7-3.4,21-3.6c1.2-12.3,3.1-24.4,5.9-36.4c2.8-11.9,6.2-23.2,10.1-33.9
					c4-10.7,8.4-20.5,13.4-29.4c5-9,10.2-16.6,15.8-23c5.6-6.4,11.4-11.3,17.5-14.7c6.1-3.4,12.2-4.9,18.4-4.5
					c4.5,0.3,8.3,1.8,11.3,4.4c3,2.6,5.4,5.9,7.1,10C629.2,48.6,630.3,53.2,630.8,58.4z M604.6,77.6c0.4-5.2,0.2-8.9-0.6-11
					c-0.8-2.1-2-3.2-3.8-3.3c-3.1-0.2-6,1.5-8.8,5.3c-2.8,3.7-5.4,8.6-7.7,14.5c-2.4,5.9-4.5,12.5-6.5,19.8c-2,7.2-3.7,14.2-5.1,21
					c-1.5,6.8-2.7,12.9-3.6,18.4c-1,5.5-1.6,9.3-2,11.6c-0.7,4.7-1.4,9.2-1.9,13.6c-0.6,4.4-1,8.4-1.4,12c-0.4,3.6-0.6,6.8-0.8,9.5
					c-0.2,2.7-0.3,4.8-0.4,6.2l-0.1,1.5c6.4-12.2,12.3-24.3,17.8-36.4c2.3-5.2,4.7-10.6,7-16.3c2.4-5.7,4.6-11.4,6.7-17.2
					c2.1-5.8,3.9-11.5,5.5-17.1c1.6-5.6,2.8-10.9,3.7-16C603.6,86.9,604.3,81.5,604.6,77.6z M527.3,196.5c0-2,0-3-0.1-2.9
					c-6.6,2.6-12.5,6.3-17.9,11c-5.3,4.7-9.9,9.9-13.6,15.5c-3.7,5.7-6.7,11.4-8.9,17.3c-2.2,5.9-3.4,11.2-3.8,16
					c-0.1,1.9-0.1,3.9,0.2,5.8c0.3,2,1,3.8,2,5.4c1.1,1.6,2.6,3,4.6,4.1c2.1,1.1,4.8,1.8,8.1,2c1.7,0.1,3.5-0.2,5.2-0.9
					c1.8-0.7,3.5-1.8,5.1-3c1.6-1.3,3.2-2.8,4.7-4.5c1.5-1.7,2.9-3.5,4.2-5.3c3-4.3,5.8-9.1,8.4-14.5c-0.2-1.4-0.3-3.5-0.3-6.5
					c0-3,0.1-6.3,0.3-9.9c0.2-3.6,0.3-7.4,0.5-11.2c0.2-3.9,0.4-7.4,0.5-10.6C527.1,201.2,527.2,198.6,527.3,196.5z"/>
				<path fill="#0086FF" d="M619,248l2,33.7c-4.7,3.1-9.2,6-13.8,8.6c-2.6-1.3-4.9-3.2-6.8-5.7c-2-2.7-3.5-6.1-4.4-10.3
					c-0.7-3-1-6.6-1-10.6c2.2-1.2,4.3-2.5,6.4-3.7C607,256.5,612.9,252.5,619,248z"/>
				<path fill="#0086FF" d="M476.5,252.5l4.7,32.6c-2.4,2.9-5.7,6.3-9.7,10.2c-0.7,0.6-1.3,1.3-2,1.9c-1.3-0.6-2.5-1.3-3.6-2.1
					c-4.4-3-8-6.9-10.7-11.6c-1.3-2.2-2.3-4.4-3.2-6.8c0.7-0.5,1.4-1,2.1-1.6c2.4-1.9,4.7-3.9,6.9-6
					C466,264.3,471.2,258.7,476.5,252.5z"/>
				<path fill="#0086FF" d="M465.8,295.1c1.1,0.8,2.4,1.5,3.6,2.1c-3.5,3.2-7.3,6.2-11.4,9.1c-4.9,3.4-10.1,6.3-15.6,8.5
					c-5.5,2.2-10.9,3.1-16.2,2.8c-6.4-0.5-11.5-2.9-15.5-7.3c-3.9-4.4-7.2-10.6-9.7-18.6c-2.5,2.5-5.5,5.1-9.1,7.6
					c-3.6,2.6-7.4,4.8-11.6,6.8c-4.2,2-8.5,3.5-12.9,4.7c-4.4,1.1-8.8,1.6-13.2,1.3c-4.6-0.3-9.1-1.6-13.3-3.8
					c-4.3-2.2-8-5.2-11.1-8.9c-3.1-3.8-5.5-8.3-7.2-13.5c-1.1-3.3-1.7-6.8-1.9-10.6c3.4-1.5,6.7-3.3,9.8-5.3
					c3.4-2.2,6.6-4.5,9.5-6.8c3-2.4,5.6-4.5,7.9-6.4l-1.6-34c-3.9,4-8,7.7-12.2,11c-1.7,1.3-3.5,2.6-5.4,3.9c1.9-4.4,4.1-8.7,6.6-13
					c4.1-7,8.8-13.6,14.1-19.7c5.3-6.1,11.1-11.4,17.2-15.8c6.1-4.4,12.5-7.8,19.1-10.2c6.6-2.4,13.3-3.4,19.9-2.9
					c2.2,0.2,3.9,0.7,5.1,1.7c1.2,1,2.2,2,2.9,3.2c0.7,1.2,1.5,2.3,2.2,3.4c0.7,1.1,1.6,2,2.7,2.5c1.1,0.6,2.3,1,3.5,1.2
					c1.2,0.2,2.4,0.4,3.7,0.5c1.1,0.1,2.1,0.1,3.3,0.1c1.1,0,2.2,0.1,3.3,0.2c1.4,0.1,2.8,0.4,4,0.7c1.2,0.4,2.3,1.1,3.2,2.1
					c0.9,1,1.5,2.4,2,4.2c0.4,1.8,0.5,4.2,0.3,7.1c-0.3,4.6-1.2,9.7-2.5,15.3c-1.4,5.6-2.8,11.3-4.4,17.1c-1.6,5.9-3,11.7-4.4,17.6
					c-1.4,5.9-2.3,11.5-2.6,16.8c-0.3,4.5-0.2,8.1,0.5,10.7c0.6,2.6,2.3,4,5,4.2c2,0.1,4.2-0.2,6.5-1.1c2.3-0.9,4.6-2,7-3.5
					c1.7-1.1,3.4-2.2,5.1-3.5c0.9,2.4,2,4.7,3.2,6.8C457.9,288.3,461.4,292.1,465.8,295.1z M396.1,245.8l11.8-41.9
					c-4-0.3-7.9,0.4-11.8,2.2c-3.9,1.7-7.6,4.1-11.2,7.3c-3.6,3.2-6.9,6.8-10,10.9c-3.1,4.1-5.8,8.5-8.2,13.2
					c-2.4,4.6-4.3,9.3-5.7,14.1c-1.4,4.7-2.3,9.2-2.6,13.5c-0.2,2.4-0.2,4.8,0,7c0.2,2.3,0.6,4.4,1.4,6.2c0.8,1.8,1.8,3.4,3.2,4.6
					c1.4,1.2,3.2,1.9,5.4,2.1c3.6,0.3,6.9-1.1,10-3.9c3.1-2.9,5.9-6.4,8.3-10.6c2.4-4.2,4.5-8.5,6.1-13.1
					C394.4,252.7,395.5,248.9,396.1,245.8z"/>
				<path fill="#0086FF" d="M346.6,222.8l1.6,34c-2.3,1.9-4.9,4-7.9,6.4c-3,2.4-6.1,4.6-9.5,6.8c-3.1,2-6.4,3.8-9.8,5.3
					c-0.1-2.2-0.1-4.4,0.1-6.8c0.5-7.2,2-14.6,4.6-22.1c1-3,2.1-5.9,3.4-8.8c1.9-1.3,3.7-2.6,5.4-3.9
					C338.6,230.5,342.6,226.9,346.6,222.8z"/>
				<path fill="#0086FF" d="M328.9,237.7c-1.3,2.9-2.4,5.8-3.4,8.8c-2.6,7.5-4.1,14.8-4.6,22.1c-0.2,2.3-0.2,4.6-0.1,6.8
					c-0.3,0.1-0.6,0.3-0.9,0.4c-3.8,1.6-7.6,2.7-11.7,3.1c-7.2,0.8-13.2,0-17.9-2.5c-4.7-2.4-8.7-5.9-11.8-10.4
					c-3.1-4.5-5.6-9.6-7.5-15.4c-1.9-5.8-3.6-11.6-5-17.6l-2.3,0.3l-12.8,53.8l-6.9-31.9c-7.6,10.9-14.5,20.1-20.6,27.4
					c-4.9,5.9-9.5,11-13.7,15.3c-0.3-3.4-0.5-7.2-0.6-11.4c-0.1-5.7-0.1-11.7,0-18c0.1-6.3,0.4-12.8,0.8-19.4
					c0.4-6.6,0.9-12.9,1.5-18.9s1.3-11.5,2-16.6c0.7-5,1.5-9.2,2.4-12.5c0.5-2.2,1.1-4,1.8-5.3c0.6-1.3,1.4-2.4,2.3-3.3
					c0.9-0.8,2.1-1.5,3.6-1.9c1.5-0.4,3.3-0.7,5.5-1c2.5-0.3,4.5-0.4,5.9-0.3c1.4,0.1,2.5,0.5,3.3,1.4c0.8,0.8,1.3,2.1,1.7,3.8
					c0.3,1.7,0.7,4.1,1,7c0.4,3.6,0.9,7.9,1.4,12.9c0.5,5,1.2,10,1.9,14.9l1.6-0.2c1.5-4.1,3.2-8.6,5.1-13.6c1.9-5,4.2-9.8,6.9-14.3
					c2.7-4.5,5.9-8.4,9.7-11.7c3.7-3.3,8.2-5.2,13.5-5.8c1.8-0.2,3.6-0.1,5.4,0.4c1.8,0.4,3.4,1.1,4.8,2.2c1.4,1,2.6,2.3,3.6,3.9
					c1,1.6,1.5,3.5,1.8,5.6c0.2,1.6,0.2,3.9,0,6.9c-0.2,3-0.4,6.1-0.6,9.4c-0.2,3.3-0.4,6.5-0.6,9.5c-0.1,3.1-0.1,5.6,0.1,7.7
					c0.4,3.5,1,6.3,2,8.5c0.9,2.2,2,4,3.3,5.3c1.3,1.3,2.6,2.1,4.1,2.5c1.4,0.4,2.9,0.5,4.5,0.4c4.3-0.5,8.7-1.9,13.1-4.4
					C324.7,240.4,326.9,239.1,328.9,237.7z"/>
				<path fill="#0086FF" d="M243.9,255.1l6.9,31.9l-3.1,13.1c-1.1,1.4-2.3,2.8-3.5,4.3c-3.3,3.7-6.9,7.5-10.9,11.2
					c-4,3.7-8.1,7.4-12.4,10.9c-0.2,0.1-0.3,0.3-0.5,0.4c-1.9-1.3-3.5-3.1-4.8-5.2c-1.6-2.7-2.8-5.8-3.7-9.4
					c-0.8-3.5-1.4-7.3-1.9-11.1c-0.1-1.1-0.2-2.2-0.3-3.4c4.2-4.3,8.7-9.4,13.7-15.3C229.5,275.2,236.3,266.1,243.9,255.1z"/>
				<path fill="#0086FF" d="M247.7,300.2l-1.9,7.9c-0.9,3.9-1.9,7.1-2.8,9.7c-0.9,2.6-1.9,4.7-3,6.4c-1.1,1.7-2.3,2.9-3.7,3.7
					c-1.4,0.8-2.9,1.3-4.7,1.5c-3.9,0.4-7.2-0.1-9.8-1.5c-0.5-0.3-1-0.6-1.5-0.9c0.1-0.1,0.3-0.3,0.5-0.4c4.3-3.5,8.5-7.1,12.4-10.9
					c4-3.7,7.6-7.5,10.9-11.2C245.4,303,246.6,301.6,247.7,300.2z"/>
				<path fill="#0086FF" d="M210,301.2c0.4,3.9,1,7.6,1.9,11.1c0.8,3.6,2.1,6.7,3.7,9.4c1.3,2.2,2.9,3.9,4.8,5.2
					c-4.2,3.4-8.2,6.5-12.2,9.5c-9.8,7.4-20.3,14.5-31.6,21.4c-2.2,12.3-4.8,24.3-7.8,36c-3,11.7-6.5,22.6-10.6,32.8
					c-4.1,10.2-8.8,19.5-14,28.1c-5.3,8.5-11.2,15.8-17.8,21.9c-6.6,6.1-14,10.8-22.2,14.3c-8.2,3.4-17.2,5.1-27.1,5.1
					c-3.9,0-8.1-0.4-12.7-1.2c-4.6-0.8-8.8-2.4-12.6-4.8c-3.8-2.4-7-5.9-9.6-10.4c-2.5-4.5-3.8-10.5-3.8-18c0-5.2,1.3-11,4-17.5
					c2.6-6.5,6.3-13.4,10.9-20.6c4.6-7.2,10.1-14.7,16.4-22.5c6.3-7.8,13.2-15.5,20.6-23.2c7.4-7.7,15.2-15.3,23.3-22.8
					c8.1-7.5,16.3-14.6,24.6-21.4l4.7-16.1c-6.2,5.5-12.7,10-19.4,13.4c-6.7,3.4-13.3,5.1-19.6,5.1c-5.5,0-10.9-1.1-16.1-3.4
					c-5.2-2.3-9.9-5.5-13.9-9.7c-4-4.2-7.3-9.3-9.7-15.4c-2.4-6-3.6-12.9-3.6-20.5c0-8.6,1.2-17.5,3.6-26.6c2.4-9.1,5.8-18,10-26.7
					c4.3-8.7,9.3-16.9,15.1-24.6c5.8-7.7,12.2-14.5,19.1-20.2c6.9-5.8,14.2-10.3,21.9-13.7c7.7-3.4,15.5-5.1,23.4-5.1
					c2.7,0,4.7,0.5,6.2,1.6c1.5,1,2.7,2.2,3.7,3.5c1,1.3,1.9,2.6,2.9,3.9c0.9,1.3,2.1,2.2,3.5,2.8c1.4,0.6,2.8,0.9,4.2,1.1
					c1.4,0.2,2.9,0.3,4.4,0.3c1.3,0,2.6,0,3.9-0.1c1.3-0.1,2.6-0.1,3.9-0.1c1.7,0,3.3,0.2,4.8,0.5c1.5,0.3,2.8,1.1,4,2.2
					c1.1,1.2,2,2.8,2.7,4.8c0.6,2.1,0.9,4.9,0.9,8.5c0,3-0.2,7-0.7,12.1c-0.5,5.1-1.1,10.7-1.9,16.9c-0.8,6.2-1.7,12.8-2.7,19.8
					c-1,7-2,13.8-3,20.5c-2.4,15.9-5.2,32.9-8.3,50.9c3.5-1.9,7.2-4.4,11.2-7.3c4-2.9,8.5-6.7,13.5-11.6c1-0.9,1.9-1.9,2.9-2.9
					C209.8,299,209.9,300.1,210,301.2z M147.9,253.9l10.5-50.8c-4.7,0-9.3,1.2-13.8,3.5c-4.5,2.4-8.7,5.6-12.7,9.6
					c-4,4-7.6,8.6-11,13.8c-3.3,5.2-6.2,10.6-8.6,16.3c-2.4,5.7-4.3,11.4-5.6,17.2c-1.3,5.8-2,11.2-2,16.2c0,2.9,0.2,5.7,0.6,8.4
					c0.4,2.7,1.1,5.1,2.2,7.3c1,2.1,2.4,3.9,4.1,5.2c1.7,1.3,3.9,2,6.6,2c4.3,0,8.1-1.8,11.6-5.5c3.5-3.7,6.5-8.1,9-13.3
					c2.5-5.2,4.6-10.5,6.1-16.1C146.4,262.2,147.4,257.6,147.9,253.9z M128.5,395.7c1.6-5.9,2.9-11.1,3.8-15.7
					c-4.5,3-9.1,6.6-13.7,10.7c-4.7,4.1-9.2,8.6-13.6,13.4c-4.4,4.8-8.6,9.7-12.6,14.8c-4,5.1-7.5,9.9-10.4,14.6
					c-3,4.7-5.4,9-7.1,13c-1.7,4-2.6,7.4-2.6,10c0,4.3,2.3,6.4,6.9,6.4c4.8,0,9.4-1.4,13.7-4.2c4.3-2.8,8.3-6.5,11.9-11.1
					c3.6-4.6,6.9-9.8,9.9-15.7c3-5.9,5.6-11.9,7.9-18C125,407.6,126.9,401.6,128.5,395.7z"/>
			</g>
		</g>
		<g>
			<path fill="#0086FF" d="M250.6,408.5v-40h18.7c8.7,0,13.4,5.9,13.4,12.9c0,7-4.8,12.8-13.4,12.8h-10.2v14.3H250.6z M274.1,381.4
				c0-3.4-2.6-5.4-5.9-5.4h-9v10.7h9C271.5,386.7,274.1,384.7,274.1,381.4z"/>
			<path fill="#0086FF" d="M340.7,408.5l-7.9-14.2h-6.2v14.2h-8.5v-40h18.7c8.3,0,13.5,5.5,13.5,12.9c0,7-4.5,10.9-8.8,11.9
				l9.1,15.2H340.7z M341.6,381.3c0-3.3-2.6-5.3-5.9-5.3h-9v10.8h9C339,386.8,341.6,384.7,341.6,381.3z"/>
			<path fill="#0086FF" d="M384.8,388.5c0-12.1,8.8-20.7,20.9-20.7c12.1,0,20.9,8.6,20.9,20.7c0,12.1-8.8,20.7-20.9,20.7
				C393.6,409.2,384.8,400.5,384.8,388.5z M417.8,388.5c0-7.5-4.7-13.1-12.1-13.1c-7.4,0-12.2,5.6-12.2,13.1
				c0,7.4,4.7,13.1,12.2,13.1C413.1,401.6,417.8,395.9,417.8,388.5z"/>
			<path fill="#0086FF" d="M460.7,388.5c0-12.7,9.6-20.7,21.4-20.7c8.3,0,13.5,4.2,16.5,8.9l-7,3.8c-1.9-2.8-5.3-5.2-9.5-5.2
				c-7.3,0-12.6,5.6-12.6,13.1c0,7.6,5.3,13.1,12.6,13.1c3.5,0,6.8-1.6,8.5-3.1v-4.8h-10.6v-7.4H499v15.4c-4.1,4.6-9.8,7.5-17,7.5
				C470.3,409.2,460.7,401.1,460.7,388.5z"/>
			<path fill="#0086FF" d="M558.4,408.5l-7.9-14.2h-6.2v14.2h-8.5v-40h18.7c8.3,0,13.5,5.5,13.5,12.9c0,7-4.5,10.9-8.8,11.9
				l9.1,15.2H558.4z M559.3,381.3c0-3.3-2.6-5.3-5.9-5.3h-9v10.8h9C556.7,386.8,559.3,384.7,559.3,381.3z"/>
			<path fill="#0086FF" d="M632,408.5l-2.5-6.8h-17.2l-2.5,6.8h-9.7l15.4-40h10.7l15.4,40H632z M620.9,377l-6.2,17.2h12.5L620.9,377
				z"/>
			<path fill="#0086FF" d="M710.2,408.5v-28.9l-11.3,28.9h-3.7l-11.3-28.9v28.9h-8.5v-40h11.9l9.7,25l9.7-25h12v40H710.2z"/>
			<path fill="#0086FF" d="M791.5,408.5v-28.9l-11.3,28.9h-3.7l-11.3-28.9v28.9h-8.5v-40h11.9l9.7,25l9.7-25h12v40H791.5z"/>
			<path fill="#0086FF" d="M838,408.5v-40h28.3v7.5h-19.8v8.4h19.4v7.5h-19.4v9.1h19.8v7.5H838z"/>
		</g>
	</g>
	<g>
		<path fill="#5283C3" stroke="#5283C3" stroke-width="5" stroke-miterlimit="10" d="M64.4,94.5c0-19.5,14.2-32.8,32.1-32.8
			c10.1,0,17.8,4.5,23.1,11.2l-4.6,2.9c-4-5.5-10.9-9.2-18.5-9.2c-14.8,0-26.4,11.3-26.4,27.9c0,16.4,11.6,27.9,26.4,27.9
			c7.6,0,14.5-3.7,18.5-9.2l4.7,2.9c-5.7,6.9-13.1,11.3-23.2,11.3C78.5,127.3,64.4,114,64.4,94.5z"/>
		<path fill="#5283C3" stroke="#5283C3" stroke-width="5" stroke-miterlimit="10" d="M127.9,103.1c0-13.4,8.7-24.1,22.2-24.1
			c8,0,12.6,3.1,16.3,7.8l-3.4,3c-3.3-4.6-7.5-6.4-12.6-6.4c-10.7,0-17.3,8.6-17.3,19.6s6.6,19.7,17.3,19.7c5,0,9.2-1.9,12.6-6.5
			l3.4,3c-3.7,4.8-8.3,7.9-16.3,7.9C136.6,127.3,127.9,116.5,127.9,103.1z"/>
		<path fill="#5283C3" stroke="#5283C3" stroke-width="5" stroke-miterlimit="10" d="M223.3,126.1V96h-40.2v30.1h-5.4V62.7h5.4v28.3
			h40.2V62.7h5.4v63.4H223.3z"/>
		<path fill="#5283C3" stroke="#5283C3" stroke-width="5" stroke-miterlimit="10" d="M244.6,101.8V62.7h5.5v39
			c0,12.8,6.8,20.6,19.2,20.6s19.2-7.8,19.2-20.6v-39h5.5v39.1c0,15.7-8.4,25.5-24.7,25.5C253.1,127.3,244.6,117.4,244.6,101.8z"/>
		<path fill="#5283C3" stroke="#5283C3" stroke-width="5" stroke-miterlimit="10" d="M310,126.1V62.7H336c10.6,0,17.5,6.2,17.5,16.2
			c0,8-5.4,13.4-11.1,14.5c6.8,1,12.4,8.1,12.4,15.6c0,10.6-6.8,17.1-18.2,17.1H310z M347.8,79.5c0-6.5-4.3-11.8-12.5-11.8h-20v23.5
			h20C343.5,91.2,347.8,86,347.8,79.5z M349,108.6c0-6.5-4.5-12.6-13.3-12.6h-20.3v25.1h20.3C344.1,121.2,349,116.3,349,108.6z"/>
	</g>
</g>
</svg>
